{
  "accessors": [
    {
      "bufferView": 2,
      "componentType": 5126,
      "count": 468,
      "max": [
        0.05501199886202812,
        0.9048730134963989,
        0.08031199872493744
      ],
      "min": [
        -0.18307200074195862,
        0.8518249988555908,
        -0.07610999792814255
      ],
      "type": "VEC3"
    },
    {
      "bufferView": 2,
      "byteOffset": 5616,
      "componentType": 5126,
      "count": 468,
      "max": [
        0.22957831621170044,
        0.9587135314941406,
        0.4695184528827667
      ],
      "min": [
        -0.9715122580528259,
        -0.9999763369560242,
        -0.37247517704963684
      ],
      "type": "VEC3"
    },
    {
      "bufferView": 1,
      "componentType": 5126,
      "count": 468,
      "max": [
        0.6409569978713989,
        0.8321740031242371
      ],
      "min": [
        0.09415800124406815,
        0.16941800713539124
      ],
      "type": "VEC2"
    },
    {
      "bufferView": 0,
      "componentType": 5125,
      "count": 2580,
      "type": "SCALAR"
    }
  ],
  "asset": {
    "extras": {
      "author": "AVZ (https://sketchfab.com/micropalaeontology)",
      "license": "CC-BY-4.0 (http://creativecommons.org/licenses/by/4.0/)",
      "source": "https://sketchfab.com/3d-models/mars-perseverance-1a31a0a9d93d4573be786e5d2bec4801",
      "title": "Mars Perseverance"
    },
    "generator": "Sketchfab-12.68.0",
    "version": "2.0"
  },
  "bufferViews": [
    {
      "buffer": 0,
      "byteLength": 10320,
      "name": "floatBufferViews",
      "target": 34963
    },
    {
      "buffer": 0,
      "byteLength": 3744,
      "byteOffset": 10320,
      "byteStride": 8,
      "name": "floatBufferViews",
      "target": 34962
    },
    {
      "buffer": 0,
      "byteLength": 11232,
      "byteOffset": 14064,
      "byteStride": 12,
      "name": "floatBufferViews",
      "target": 34962
    }
  ],
  "buffers": [
    {
      "byteLength": 25296,
      "uri": "scene.bin"
    }
  ],
  "images": [
    {
      "uri": "textures/Mars_Sol89_baseColor.jpeg"
    }
  ],
  "materials": [
    {
      "doubleSided": true,
      "name": "Mars_Sol89",
      "pbrMetallicRoughness": {
        "baseColorTexture": {
          "index": 0
        },
        "metallicFactor": 0.0
      }
    }
  ],
  "meshes": [
    {
      "name": "Object_0",
      "primitives": [
        {
          "attributes": {
            "NORMAL": 1,
            "POSITION": 0,
            "TEXCOORD_0": 2
          },
          "indices": 3,
          "material": 0,
          "mode": 4
        }
      ]
    }
  ],
  "nodes": [
    {
      "children": [
        1
      ],
      "matrix": [
        0.9840319156646729,
        -0.15348319709300998,
        0.09013395011425016,
        0.0,
        -0.1438189148902893,
        -0.9839739799499512,
        -0.10541050136089347,
        0.0,
        0.10486820340156555,
        0.09076432883739494,
        -0.9903355240821838,
        0.0,
        0.12508045136928558,
        0.8563553094863894,
        -0.7779098749160764,
        1.0
      ],
      "name": "Sketchfab_model"
    },
    {
      "children": [
        2
      ],
      "name": "Mars_Sol89.obj.cleaner.materialmerger.gles"
    },
    {
      "mesh": 0,
      "name": "Object_2"
    }
  ],
  "samplers": [
    {
      "magFilter": 9729,
      "minFilter": 9987,
      "wrapS": 10497,
      "wrapT": 10497
    }
  ],
  "scene": 0,
  "scenes": [
    {
      "name": "Sketchfab_Scene",
      "nodes": [
        0
      ]
    }
  ],
  "textures": [
    {
      "sampler": 0,
      "source": 0
    }
  ]
}
