{
  "accessors": [
    {
      "bufferView": 2,
      "componentType": 5126,
      "count": 65532,
      "max": [
        15.917318344116211,
        45.93204879760742,
        5.703945159912109
      ],
      "min": [
        -20.635753631591797,
        -19.404943466186523,
        -0.004463599994778633
      ],
      "type": "VEC3"
    },
    {
      "bufferView": 2,
      "byteOffset": 786384,
      "componentType": 5126,
      "count": 65532,
      "max": [
        0.9997245669364929,
        0.9987701773643494,
        0.9999998807907104
      ],
      "min": [
        -0.9975625276565552,
        -0.9997615814208984,
        -0.9999856948852539
      ],
      "type": "VEC3"
    },
    {
      "bufferView": 1,
      "componentType": 5126,
      "count": 65532,
      "max": [
        0.9997408986091614,
        0.9890135526657104
      ],
      "min": [
        0.000244140625,
        0.00024392141494899988
      ],
      "type": "VEC2"
    },
    {
      "bufferView": 0,
      "componentType": 5125,
      "count": 294237,
      "type": "SCALAR"
    },
    {
      "bufferView": 2,
      "byteOffset": 1572768,
      "componentType": 5126,
      "count": 65532,
      "max": [
        15.916177749633789,
        45.93204879760742,
        5.703945159912109
      ],
      "min": [
        -20.61319351196289,
        -19.40503692626953,
        -0.0047602299600839615
      ],
      "type": "VEC3"
    },
    {
      "bufferView": 2,
      "byteOffset": 2359152,
      "componentType": 5126,
      "count": 65532,
      "max": [
        0.99989253282547,
        0.9999523758888245,
        1.0
      ],
      "min": [
        -0.9999979138374329,
        -0.9999401569366455,
        -0.9999884366989136
      ],
      "type": "VEC3"
    },
    {
      "bufferView": 1,
      "byteOffset": 524256,
      "componentType": 5126,
      "count": 65532,
      "max": [
        0.9997443556785583,
        0.9997557401657104
      ],
      "min": [
        0.000244140625,
        0.0002444578567519784
      ],
      "type": "VEC2"
    },
    {
      "bufferView": 0,
      "byteOffset": 1176948,
      "componentType": 5125,
      "count": 283827,
      "type": "SCALAR"
    },
    {
      "bufferView": 2,
      "byteOffset": 3145536,
      "componentType": 5126,
      "count": 6221,
      "max": [
        2.046687126159668,
        0.6746587157249451,
        3.899676561355591
      ],
      "min": [
        -20.462047576904297,
        -19.15668296813965,
        1.0996999740600586
      ],
      "type": "VEC3"
    },
    {
      "bufferView": 2,
      "byteOffset": 3220188,
      "componentType": 5126,
      "count": 6221,
      "max": [
        0.9728546738624573,
        0.7826951742172241,
        0.9999963045120239
      ],
      "min": [
        -0.8309164047241211,
        -0.9794874787330627,
        -0.6453423500061035
      ],
      "type": "VEC3"
    },
    {
      "bufferView": 1,
      "byteOffset": 1048512,
      "componentType": 5126,
      "count": 6221,
      "max": [
        0.9991138577461243,
        0.9356846809387207
      ],
      "min": [
        0.000244140625,
        0.0003816081443801522
      ],
      "type": "VEC2"
    },
    {
      "bufferView": 0,
      "byteOffset": 2312256,
      "componentType": 5125,
      "count": 23325,
      "type": "SCALAR"
    }
  ],
  "asset": {
    "extras": {
      "author": "David Vacas Madrid (https://sketchfab.com/vacasmadrid)",
      "license": "CC-BY-4.0 (http://creativecommons.org/licenses/by/4.0/)",
      "source": "https://sketchfab.com/3d-models/mars-landscape-83f6f32b0a694f939cd16bf04f5565ef",
      "title": "Mars landscape"
    },
    "generator": "Sketchfab-12.63.0",
    "version": "2.0"
  },
  "bufferViews": [
    {
      "buffer": 0,
      "byteLength": 2405556,
      "name": "floatBufferViews",
      "target": 34963
    },
    {
      "buffer": 0,
      "byteLength": 1098280,
      "byteOffset": 2405556,
      "byteStride": 8,
      "name": "floatBufferViews",
      "target": 34962
    },
    {
      "buffer": 0,
      "byteLength": 3294840,
      "byteOffset": 3503836,
      "byteStride": 12,
      "name": "floatBufferViews",
      "target": 34962
    }
  ],
  "buffers": [
    {
      "byteLength": 6798676,
      "uri": "scene.bin"
    }
  ],
  "extensionsUsed": [
    "KHR_materials_unlit"
  ],
  "images": [
    {
      "uri": "textures/tex_u1_v1_baseColor.png"
    }
  ],
  "materials": [
    {
      "doubleSided": true,
      "extensions": {
        "KHR_materials_unlit": {}
      },
      "name": "tex_u1_v1",
      "pbrMetallicRoughness": {
        "baseColorTexture": {
          "index": 0
        },
        "metallicFactor": 0.0
      }
    }
  ],
  "meshes": [
    {
      "name": "Object_0",
      "primitives": [
        {
          "attributes": {
            "NORMAL": 1,
            "POSITION": 0,
            "TEXCOORD_0": 2
          },
          "indices": 3,
          "material": 0,
          "mode": 4
        }
      ]
    },
    {
      "name": "Object_1",
      "primitives": [
        {
          "attributes": {
            "NORMAL": 5,
            "POSITION": 4,
            "TEXCOORD_0": 6
          },
          "indices": 7,
          "material": 0,
          "mode": 4
        }
      ]
    },
    {
      "name": "Object_2",
      "primitives": [
        {
          "attributes": {
            "NORMAL": 9,
            "POSITION": 8,
            "TEXCOORD_0": 10
          },
          "indices": 11,
          "material": 0,
          "mode": 4
        }
      ]
    }
  ],
  "nodes": [
    {
      "children": [
        1
      ],
      "matrix": [
        0.3571241796016693,
        0.0,
        0.0,
        0.0,
        0.0,
        7.929749736882859e-17,
        -0.3571241796016693,
        0.0,
        0.0,
        0.3571241796016693,
        7.929749736882859e-17,
        0.0,
        0.0,
        0.0,
        0.0,
        1.0
      ],
      "name": "Sketchfab_model"
    },
    {
      "children": [
        2,
        3,
        4
      ],
      "name": "model.obj.cleaner.materialmerger.gles"
    },
    {
      "mesh": 0,
      "name": "Object_2"
    },
    {
      "mesh": 1,
      "name": "Object_3"
    },
    {
      "mesh": 2,
      "name": "Object_4"
    }
  ],
  "samplers": [
    {
      "magFilter": 9729,
      "minFilter": 9987,
      "wrapS": 10497,
      "wrapT": 10497
    }
  ],
  "scene": 0,
  "scenes": [
    {
      "name": "Sketchfab_Scene",
      "nodes": [
        0
      ]
    }
  ],
  "textures": [
    {
      "sampler": 0,
      "source": 0
    }
  ]
}
